<svg xmlns="http://www.w3.org/2000/svg" xmlns:xlink="http://www.w3.org/1999/xlink" width="324" zoomAndPan="magnify" viewBox="0 0 242.87999 242.999999" height="324" preserveAspectRatio="xMidYMid meet" version="1.0"><defs><clipPath id="d2d521c09d"><path d="M 0 0.0585938 L 242.761719 0.0585938 L 242.761719 242.9375 L 0 242.9375 Z M 0 0.0585938 " clip-rule="nonzero"/></clipPath><clipPath id="5fdacd12da"><path d="M 121.441406 0.0585938 C 54.371094 0.0585938 0 54.429688 0 121.5 C 0 188.570312 54.371094 242.941406 121.441406 242.941406 C 188.507812 242.941406 242.878906 188.570312 242.878906 121.5 C 242.878906 54.429688 188.507812 0.0585938 121.441406 0.0585938 Z M 121.441406 0.0585938 " clip-rule="nonzero"/></clipPath><clipPath id="b8f7d0fcd1"><path d="M 49.808594 49.867188 L 192.984375 49.867188 L 192.984375 192 L 49.808594 192 Z M 49.808594 49.867188 " clip-rule="nonzero"/></clipPath></defs><g clip-path="url(#d2d521c09d)"><g clip-path="url(#5fdacd12da)"><path fill="#002f6c" d="M 0 0.0585938 L 242.878906 0.0585938 L 242.878906 242.941406 L 0 242.941406 Z M 0 0.0585938 " fill-opacity="1" fill-rule="nonzero"/></g></g><g clip-path="url(#b8f7d0fcd1)"><path fill="#ffffff" d="M 170.902344 157.378906 C 175.082031 157.378906 178.46875 160.765625 178.46875 164.949219 C 178.46875 169.125 175.082031 172.515625 170.902344 172.515625 C 169.78125 172.515625 168.71875 172.273438 167.765625 171.835938 C 153.378906 185.984375 133.667969 193.117188 113.527344 191.34375 C 98.046875 189.984375 83.039062 183.398438 71.367188 171.886719 L 71.890625 176.304688 C 72.042969 177.589844 71.125 178.753906 69.839844 178.902344 C 68.558594 179.054688 67.394531 178.136719 67.242188 176.855469 L 65.867188 165.214844 C 65.683594 163.667969 67.054688 162.359375 68.609375 162.644531 L 79.949219 164.738281 C 81.21875 164.96875 82.058594 166.1875 81.824219 167.453125 C 81.59375 168.722656 80.375 169.5625 79.109375 169.328125 L 74.578125 168.492188 C 85.460938 179.25 99.472656 185.40625 113.929688 186.679688 C 132.625 188.328125 150.910156 181.765625 164.316406 168.675781 C 163.691406 167.578125 163.332031 166.304688 163.332031 164.949219 C 163.332031 160.769531 166.722656 157.378906 170.902344 157.378906 Z M 111.082031 74.972656 C 99.652344 74.972656 90.386719 84.238281 90.386719 95.667969 C 90.386719 100.085938 91.769531 104.175781 94.125 107.535156 C 91.964844 109.632812 89.800781 111.734375 87.636719 113.832031 L 87.402344 113.589844 C 86.683594 112.847656 85.484375 112.828125 84.742188 113.550781 L 73.378906 124.578125 C 72.636719 125.300781 72.617188 126.496094 73.339844 127.238281 L 77.441406 131.46875 C 78.164062 132.210938 79.359375 132.230469 80.101562 131.507812 L 91.46875 120.480469 C 92.210938 119.757812 92.226562 118.5625 91.507812 117.820312 L 91.273438 117.578125 L 97.636719 111.402344 C 101.253906 114.496094 105.949219 116.367188 111.082031 116.367188 C 122.511719 116.367188 131.777344 107.097656 131.777344 95.667969 C 131.78125 84.238281 122.511719 74.972656 111.082031 74.972656 Z M 111.082031 81.035156 C 119.164062 81.035156 125.71875 87.585938 125.71875 95.667969 C 125.71875 103.753906 119.164062 110.304688 111.082031 110.304688 C 103 110.304688 96.449219 103.753906 96.449219 95.667969 C 96.449219 87.585938 103 81.035156 111.082031 81.035156 Z M 86.6875 140.046875 C 85.882812 140.046875 85.222656 140.703125 85.222656 141.511719 L 85.222656 158.949219 C 85.222656 159.753906 85.882812 160.410156 86.6875 160.410156 L 94.375 160.410156 C 95.183594 160.410156 95.839844 159.753906 95.839844 158.949219 L 95.839844 141.511719 C 95.839844 140.703125 95.183594 140.046875 94.375 140.046875 Z M 145.820312 108.214844 C 145.011719 108.214844 144.355469 108.871094 144.355469 109.675781 L 144.355469 158.949219 C 144.355469 159.753906 145.011719 160.410156 145.820312 160.410156 L 153.507812 160.410156 C 154.3125 160.410156 154.96875 159.753906 154.96875 158.949219 L 154.96875 109.675781 C 154.96875 108.871094 154.3125 108.214844 153.507812 108.214844 Z M 133.796875 118.234375 L 126.109375 118.234375 C 125.304688 118.234375 124.644531 118.894531 124.644531 119.699219 L 124.644531 158.949219 C 124.644531 159.753906 125.304688 160.410156 126.109375 160.410156 L 133.796875 160.410156 C 134.601562 160.410156 135.261719 159.753906 135.261719 158.949219 L 135.261719 119.699219 C 135.261719 118.894531 134.601562 118.234375 133.796875 118.234375 Z M 114.085938 129.378906 C 111.523438 129.378906 108.960938 129.378906 106.398438 129.378906 C 105.59375 129.378906 104.933594 130.035156 104.933594 130.839844 C 104.933594 140.800781 104.933594 148.988281 104.933594 158.949219 C 104.933594 159.753906 105.59375 160.410156 106.398438 160.410156 C 108.960938 160.410156 111.523438 160.410156 114.085938 160.410156 C 114.890625 160.410156 115.550781 159.753906 115.550781 158.949219 C 115.550781 148.988281 115.550781 140.800781 115.550781 130.839844 C 115.550781 130.035156 114.890625 129.378906 114.085938 129.378906 Z M 53.046875 140.21875 C 50.027344 128.597656 50.128906 116.421875 53.226562 104.953125 C 59.480469 81.78125 77.496094 63.535156 100.417969 56.914062 L 97.171875 55.761719 C 95.953125 55.332031 95.3125 53.996094 95.742188 52.78125 C 96.171875 51.5625 97.507812 50.921875 98.726562 51.351562 L 109.59375 55.210938 C 111.089844 55.738281 111.621094 57.558594 110.6875 58.8125 L 103.679688 68.207031 C 102.90625 69.242188 101.4375 69.453125 100.402344 68.683594 C 99.367188 67.910156 99.152344 66.441406 99.925781 65.40625 L 103.230469 60.980469 C 81.1875 66.777344 63.726562 84.011719 57.746094 106.160156 C 54.878906 116.78125 54.761719 128.046875 57.507812 138.808594 C 61.660156 138.839844 65.019531 142.214844 65.019531 146.375 C 65.019531 150.554688 61.628906 153.941406 57.449219 153.941406 C 53.273438 153.941406 49.882812 150.554688 49.882812 146.375 C 49.882812 143.835938 51.132812 141.59375 53.046875 140.21875 Z M 188.875 137.113281 C 189.855469 136.273438 191.328125 136.390625 192.167969 137.371094 C 193.007812 138.347656 192.890625 139.824219 191.910156 140.664062 L 183.140625 148.144531 C 181.9375 149.171875 180.089844 148.722656 179.472656 147.292969 L 174.84375 136.523438 C 174.332031 135.339844 174.878906 133.960938 176.066406 133.453125 C 177.253906 132.941406 178.632812 133.488281 179.140625 134.675781 L 181.316406 139.734375 C 183.773438 130.667969 184.226562 121.117188 182.597656 111.804688 C 178.347656 87.519531 160.445312 67.851562 136.792969 61.257812 C 135.476562 63.496094 133.046875 64.996094 130.261719 64.996094 C 126.082031 64.996094 122.695312 61.609375 122.695312 57.429688 C 122.695312 53.25 126.082031 49.859375 130.261719 49.859375 C 134.191406 49.859375 137.421875 52.855469 137.792969 56.6875 C 163.285156 63.6875 182.632812 84.859375 187.207031 111 C 188.859375 120.433594 188.511719 130.109375 186.234375 139.367188 Z M 188.875 137.113281 " fill-opacity="1" fill-rule="evenodd"/></g></svg>