<svg xmlns="http://www.w3.org/2000/svg" xmlns:xlink="http://www.w3.org/1999/xlink" width="324" zoomAndPan="magnify" viewBox="0 0 242.87999 242.999999" height="324" preserveAspectRatio="xMidYMid meet" version="1.0"><defs><clipPath id="67490fe5e2"><path d="M 0 0.0585938 L 242.761719 0.0585938 L 242.761719 242.9375 L 0 242.9375 Z M 0 0.0585938 " clip-rule="nonzero"/></clipPath><clipPath id="14998b407b"><path d="M 121.441406 0.0585938 C 54.371094 0.0585938 0 54.429688 0 121.5 C 0 188.570312 54.371094 242.941406 121.441406 242.941406 C 188.507812 242.941406 242.878906 188.570312 242.878906 121.5 C 242.878906 54.429688 188.507812 0.0585938 121.441406 0.0585938 Z M 121.441406 0.0585938 " clip-rule="nonzero"/></clipPath><clipPath id="629f7877d2"><path d="M 43 41.078125 L 200 41.078125 L 200 202 L 43 202 Z M 43 41.078125 " clip-rule="nonzero"/></clipPath></defs><g clip-path="url(#67490fe5e2)"><g clip-path="url(#14998b407b)"><path fill="#002f6c" d="M 0 0.0585938 L 242.878906 0.0585938 L 242.878906 242.941406 L 0 242.941406 Z M 0 0.0585938 " fill-opacity="1" fill-rule="nonzero"/></g></g><g clip-path="url(#629f7877d2)"><path fill="#ffffff" d="M 199.480469 153.683594 L 185.648438 124.082031 L 185.648438 75.976562 C 185.648438 75.191406 185.371094 74.519531 184.816406 73.964844 L 159.714844 48.855469 C 159.160156 48.296875 158.488281 48.019531 157.703125 48.019531 L 142.113281 48.019531 L 138.253906 45.6875 C 137.582031 45.28125 136.863281 45.171875 136.097656 45.359375 L 132.449219 46.257812 L 118.65625 41.253906 C 117.917969 40.984375 117.191406 41.015625 116.480469 41.347656 L 102.1875 48.027344 L 77.5625 48.027344 C 77.183594 48.027344 76.820312 48.097656 76.472656 48.242188 C 76.125 48.386719 75.816406 48.59375 75.546875 48.859375 C 75.28125 49.128906 75.074219 49.433594 74.929688 49.785156 C 74.785156 50.132812 74.714844 50.496094 74.714844 50.875 L 74.714844 60.460938 L 59.25 64.269531 C 58.882812 64.359375 58.546875 64.515625 58.242188 64.738281 C 57.941406 64.960938 57.691406 65.234375 57.496094 65.558594 C 57.300781 65.878906 57.171875 66.230469 57.117188 66.601562 C 57.058594 66.976562 57.074219 67.34375 57.167969 67.710938 L 57.464844 68.921875 L 44.773438 74.855469 C 44.429688 75.015625 44.132812 75.234375 43.878906 75.511719 C 43.621094 75.792969 43.429688 76.109375 43.300781 76.464844 C 43.171875 76.820312 43.117188 77.183594 43.132812 77.5625 C 43.152344 77.941406 43.238281 78.300781 43.398438 78.640625 L 74.714844 145.65625 L 74.714844 186.613281 C 74.714844 186.988281 74.789062 187.351562 74.933594 187.699219 C 75.078125 188.050781 75.28125 188.355469 75.550781 188.625 C 75.816406 188.890625 76.125 189.097656 76.472656 189.242188 C 76.820312 189.386719 77.183594 189.457031 77.5625 189.457031 L 87.105469 189.457031 L 89.179688 197.894531 C 89.269531 198.261719 89.425781 198.597656 89.648438 198.898438 C 89.871094 199.203125 90.144531 199.453125 90.46875 199.648438 C 90.792969 199.84375 91.140625 199.972656 91.511719 200.027344 C 91.886719 200.085938 92.253906 200.066406 92.621094 199.976562 L 99.328125 198.328125 L 100.152344 200.097656 C 100.3125 200.441406 100.53125 200.738281 100.808594 200.996094 C 101.085938 201.25 101.402344 201.441406 101.757812 201.574219 C 102.113281 201.703125 102.480469 201.757812 102.855469 201.742188 C 103.234375 201.726562 103.59375 201.636719 103.9375 201.480469 L 123.253906 192.449219 L 135.386719 189.464844 L 182.804688 189.464844 C 183.183594 189.464844 183.542969 189.394531 183.894531 189.25 C 184.242188 189.105469 184.550781 188.898438 184.816406 188.632812 C 185.082031 188.367188 185.289062 188.058594 185.433594 187.710938 C 185.578125 187.359375 185.648438 186.996094 185.648438 186.621094 L 185.648438 177.09375 L 193.558594 175.148438 C 193.925781 175.058594 194.261719 174.902344 194.566406 174.679688 C 194.871094 174.453125 195.121094 174.179688 195.316406 173.859375 C 195.511719 173.535156 195.636719 173.1875 195.695312 172.816406 C 195.75 172.441406 195.734375 172.070312 195.644531 171.707031 L 192.753906 159.957031 L 198.109375 157.457031 C 198.453125 157.296875 198.75 157.078125 199.007812 156.800781 C 199.261719 156.523438 199.457031 156.207031 199.585938 155.851562 C 199.714844 155.496094 199.769531 155.128906 199.753906 154.753906 C 199.738281 154.375 199.652344 154.015625 199.492188 153.671875 Z M 160.546875 57.742188 L 175.933594 73.128906 L 160.546875 73.128906 Z M 117.820312 47.003906 L 120.636719 48.027344 L 115.625 48.027344 Z M 74.714844 66.324219 L 74.714844 115.261719 L 63.363281 69.117188 Z M 58.84375 74.5625 L 71.144531 124.5625 L 49.761719 78.808594 Z M 92.96875 189.457031 L 111.5625 189.457031 L 94.03125 193.777344 Z M 80.410156 183.757812 L 80.410156 53.71875 L 154.855469 53.71875 L 154.855469 75.976562 C 154.855469 76.351562 154.925781 76.714844 155.070312 77.066406 C 155.214844 77.414062 155.421875 77.722656 155.6875 77.988281 C 155.957031 78.253906 156.265625 78.460938 156.613281 78.605469 C 156.960938 78.75 157.324219 78.820312 157.703125 78.820312 L 179.957031 78.820312 L 179.957031 183.773438 Z M 185.648438 171.222656 L 185.648438 154.921875 L 189.4375 170.296875 Z M 191.371094 154.320312 L 189 144.695312 L 193.121094 153.507812 Z M 88.929688 78.164062 C 88.929688 77.785156 89 77.421875 89.144531 77.074219 C 89.289062 76.726562 89.496094 76.417969 89.761719 76.148438 C 90.027344 75.882812 90.335938 75.679688 90.6875 75.535156 C 91.035156 75.390625 91.398438 75.316406 91.773438 75.316406 L 115.949219 75.316406 C 116.320312 75.328125 116.675781 75.40625 117.015625 75.554688 C 117.355469 75.703125 117.65625 75.910156 117.914062 76.175781 C 118.175781 76.441406 118.375 76.746094 118.515625 77.089844 C 118.65625 77.433594 118.726562 77.792969 118.726562 78.164062 C 118.726562 78.535156 118.65625 78.894531 118.515625 79.238281 C 118.375 79.582031 118.175781 79.886719 117.914062 80.152344 C 117.65625 80.417969 117.355469 80.625 117.015625 80.773438 C 116.675781 80.921875 116.320312 81 115.949219 81.007812 L 91.777344 81.007812 C 91.398438 81.007812 91.039062 80.9375 90.691406 80.792969 C 90.339844 80.648438 90.035156 80.445312 89.765625 80.179688 C 89.5 79.914062 89.292969 79.605469 89.148438 79.257812 C 89.003906 78.910156 88.929688 78.546875 88.929688 78.171875 Z M 88.929688 89.902344 C 88.929688 89.523438 89 89.160156 89.144531 88.8125 C 89.289062 88.464844 89.496094 88.15625 89.761719 87.886719 C 90.027344 87.621094 90.335938 87.417969 90.6875 87.273438 C 91.035156 87.128906 91.398438 87.054688 91.773438 87.054688 L 135.433594 87.054688 C 135.8125 87.054688 136.175781 87.128906 136.523438 87.273438 C 136.871094 87.417969 137.179688 87.625 137.449219 87.890625 C 137.714844 88.15625 137.921875 88.464844 138.066406 88.816406 C 138.210938 89.164062 138.28125 89.527344 138.28125 89.90625 C 138.28125 90.285156 138.210938 90.648438 138.066406 90.996094 C 137.921875 91.347656 137.714844 91.65625 137.449219 91.921875 C 137.179688 92.1875 136.871094 92.394531 136.523438 92.539062 C 136.175781 92.683594 135.8125 92.757812 135.433594 92.757812 L 91.777344 92.757812 C 91.398438 92.757812 91.035156 92.683594 90.6875 92.539062 C 90.339844 92.394531 90.03125 92.191406 89.765625 91.921875 C 89.496094 91.65625 89.292969 91.347656 89.148438 91 C 89.003906 90.648438 88.929688 90.289062 88.929688 89.910156 Z M 171.4375 105.667969 C 171.4375 106.046875 171.363281 106.410156 171.21875 106.757812 C 171.074219 107.105469 170.867188 107.414062 170.601562 107.679688 C 170.335938 107.949219 170.027344 108.152344 169.679688 108.296875 C 169.328125 108.441406 168.964844 108.515625 168.589844 108.515625 L 91.777344 108.515625 C 91.398438 108.515625 91.035156 108.441406 90.6875 108.296875 C 90.335938 108.152344 90.027344 107.945312 89.761719 107.679688 C 89.496094 107.414062 89.289062 107.105469 89.144531 106.753906 C 89 106.40625 88.925781 106.042969 88.925781 105.664062 C 88.925781 105.285156 89 104.921875 89.144531 104.574219 C 89.289062 104.222656 89.496094 103.917969 89.761719 103.648438 C 90.027344 103.382812 90.335938 103.175781 90.6875 103.03125 C 91.035156 102.886719 91.398438 102.8125 91.777344 102.8125 L 168.589844 102.8125 C 168.96875 102.8125 169.332031 102.886719 169.683594 103.03125 C 170.035156 103.175781 170.34375 103.386719 170.609375 103.652344 C 170.875 103.921875 171.082031 104.230469 171.226562 104.582031 C 171.367188 104.933594 171.441406 105.296875 171.4375 105.675781 Z M 171.4375 118.71875 C 171.4375 119.097656 171.367188 119.460938 171.222656 119.8125 C 171.082031 120.164062 170.875 120.472656 170.609375 120.742188 C 170.339844 121.011719 170.03125 121.21875 169.683594 121.363281 C 169.332031 121.507812 168.96875 121.582031 168.589844 121.582031 L 91.777344 121.582031 C 91.398438 121.582031 91.035156 121.507812 90.6875 121.363281 C 90.335938 121.21875 90.027344 121.015625 89.761719 120.746094 C 89.496094 120.480469 89.289062 120.171875 89.144531 119.820312 C 89 119.472656 88.925781 119.109375 88.925781 118.730469 C 88.925781 118.351562 89 117.988281 89.144531 117.640625 C 89.289062 117.292969 89.496094 116.984375 89.761719 116.714844 C 90.027344 116.449219 90.335938 116.242188 90.6875 116.097656 C 91.035156 115.953125 91.398438 115.882812 91.777344 115.882812 L 168.589844 115.882812 C 168.96875 115.882812 169.332031 115.953125 169.679688 116.097656 C 170.027344 116.242188 170.335938 116.449219 170.605469 116.714844 C 170.871094 116.980469 171.078125 117.289062 171.222656 117.636719 C 171.363281 117.988281 171.4375 118.351562 171.4375 118.726562 Z M 171.4375 131.769531 C 171.4375 132.148438 171.363281 132.511719 171.21875 132.859375 C 171.074219 133.207031 170.867188 133.515625 170.601562 133.78125 C 170.335938 134.050781 170.027344 134.253906 169.679688 134.398438 C 169.328125 134.542969 168.964844 134.617188 168.589844 134.617188 L 91.777344 134.617188 C 91.398438 134.617188 91.035156 134.542969 90.683594 134.398438 C 90.335938 134.253906 90.027344 134.050781 89.757812 133.78125 C 89.492188 133.515625 89.285156 133.207031 89.140625 132.855469 C 88.996094 132.507812 88.921875 132.144531 88.921875 131.765625 C 88.921875 131.386719 88.996094 131.023438 89.140625 130.671875 C 89.285156 130.324219 89.492188 130.015625 89.757812 129.75 C 90.027344 129.480469 90.335938 129.273438 90.683594 129.128906 C 91.035156 128.988281 91.398438 128.914062 91.777344 128.914062 L 168.589844 128.914062 C 168.96875 128.914062 169.332031 128.988281 169.683594 129.132812 C 170.03125 129.277344 170.339844 129.484375 170.609375 129.753906 C 170.875 130.019531 171.082031 130.332031 171.222656 130.679688 C 171.367188 131.03125 171.4375 131.394531 171.4375 131.773438 Z M 171.4375 144.820312 C 171.4375 145.199219 171.363281 145.5625 171.21875 145.910156 C 171.074219 146.257812 170.867188 146.566406 170.601562 146.835938 C 170.335938 147.101562 170.027344 147.308594 169.679688 147.449219 C 169.328125 147.59375 168.964844 147.667969 168.589844 147.667969 L 91.777344 147.667969 C 91.398438 147.667969 91.035156 147.59375 90.6875 147.449219 C 90.335938 147.304688 90.027344 147.097656 89.761719 146.832031 C 89.496094 146.566406 89.289062 146.257812 89.144531 145.90625 C 89 145.558594 88.925781 145.195312 88.925781 144.816406 C 88.925781 144.4375 89 144.074219 89.144531 143.726562 C 89.289062 143.375 89.496094 143.070312 89.761719 142.800781 C 90.027344 142.535156 90.335938 142.328125 90.6875 142.183594 C 91.035156 142.039062 91.398438 141.964844 91.777344 141.964844 L 168.589844 141.964844 C 168.96875 141.964844 169.335938 142.039062 169.683594 142.183594 C 170.035156 142.332031 170.34375 142.539062 170.609375 142.804688 C 170.875 143.074219 171.082031 143.386719 171.226562 143.734375 C 171.371094 144.085938 171.441406 144.453125 171.4375 144.832031 Z M 171.4375 157.871094 C 171.4375 158.25 171.363281 158.613281 171.21875 158.960938 C 171.074219 159.308594 170.867188 159.617188 170.601562 159.882812 C 170.335938 160.152344 170.027344 160.355469 169.679688 160.5 C 169.328125 160.644531 168.964844 160.71875 168.589844 160.71875 L 143.953125 160.71875 C 143.578125 160.71875 143.214844 160.644531 142.863281 160.5 C 142.515625 160.355469 142.207031 160.152344 141.9375 159.882812 C 141.671875 159.617188 141.464844 159.308594 141.320312 158.957031 C 141.175781 158.609375 141.105469 158.246094 141.105469 157.867188 C 141.105469 157.488281 141.175781 157.125 141.320312 156.777344 C 141.464844 156.429688 141.671875 156.121094 141.9375 155.851562 C 142.207031 155.585938 142.515625 155.378906 142.863281 155.234375 C 143.214844 155.089844 143.578125 155.015625 143.953125 155.015625 L 168.589844 155.015625 C 168.96875 155.015625 169.332031 155.089844 169.683594 155.234375 C 170.035156 155.378906 170.34375 155.585938 170.609375 155.855469 C 170.875 156.125 171.082031 156.433594 171.226562 156.785156 C 171.367188 157.136719 171.441406 157.5 171.4375 157.878906 Z M 171.4375 157.871094 " fill-opacity="1" fill-rule="nonzero"/></g></svg>