<svg xmlns="http://www.w3.org/2000/svg" xmlns:xlink="http://www.w3.org/1999/xlink" width="550" zoomAndPan="magnify" viewBox="0 0 412.5 112.499997" height="150" preserveAspectRatio="xMidYMid meet" version="1.0"><defs><g/><clipPath id="1d8314311e"><path d="M 0.664062 0 L 207.820312 0 L 207.820312 112.003906 L 0.664062 112.003906 Z M 0.664062 0 " clip-rule="nonzero"/></clipPath></defs><g clip-path="url(#1d8314311e)"><path fill="#050259" d="M 0.664062 0 L 207.605469 0 L 207.605469 112.003906 L 0.664062 112.003906 Z M 0.664062 0 " fill-opacity="1" fill-rule="nonzero"/></g><g fill="#00bf63" fill-opacity="1"><g transform="translate(41.739398, 74.659939)"><g><path d="M 2.125 0 L 2.125 -8.578125 L 8.0625 -8.578125 C 10.519531 -8.578125 12.234375 -9.160156 13.203125 -10.328125 C 14.179688 -11.503906 14.671875 -13.203125 14.671875 -15.421875 L 14.671875 -40.296875 L 23.890625 -40.296875 L 23.890625 -14.734375 C 23.890625 -10.085938 22.601562 -6.46875 20.03125 -3.875 C 17.457031 -1.289062 13.660156 0 8.640625 0 Z M 2.125 0 "/></g></g></g><g fill="#ffffff" fill-opacity="1"><g transform="translate(74.728759, 74.659939)"><g><path d="M 23.953125 0.8125 C 19.765625 0.8125 16.046875 -0.078125 12.796875 -1.859375 C 9.554688 -3.648438 7.023438 -6.117188 5.203125 -9.265625 C 3.378906 -12.410156 2.46875 -16.035156 2.46875 -20.140625 C 2.46875 -24.253906 3.378906 -27.882812 5.203125 -31.03125 C 7.023438 -34.175781 9.554688 -36.640625 12.796875 -38.421875 C 16.046875 -40.203125 19.765625 -41.09375 23.953125 -41.09375 C 28.171875 -41.09375 31.890625 -40.203125 35.109375 -38.421875 C 38.335938 -36.640625 40.867188 -34.175781 42.703125 -31.03125 C 44.546875 -27.882812 45.46875 -24.253906 45.46875 -20.140625 C 45.46875 -16.035156 44.546875 -12.410156 42.703125 -9.265625 C 40.867188 -6.117188 38.335938 -3.648438 35.109375 -1.859375 C 31.890625 -0.078125 28.171875 0.8125 23.953125 0.8125 Z M 11.796875 -20.140625 C 11.796875 -17.722656 12.3125 -15.59375 13.34375 -13.75 C 14.382812 -11.914062 15.816406 -10.476562 17.640625 -9.4375 C 19.460938 -8.40625 21.566406 -7.890625 23.953125 -7.890625 C 26.367188 -7.890625 28.488281 -8.40625 30.3125 -9.4375 C 32.132812 -10.476562 33.550781 -11.914062 34.5625 -13.75 C 35.582031 -15.59375 36.09375 -17.722656 36.09375 -20.140625 C 36.09375 -22.554688 35.582031 -24.6875 34.5625 -26.53125 C 33.550781 -28.375 32.132812 -29.8125 30.3125 -30.84375 C 28.488281 -31.882812 26.367188 -32.40625 23.953125 -32.40625 C 21.566406 -32.40625 19.460938 -31.882812 17.640625 -30.84375 C 15.816406 -29.8125 14.382812 -28.375 13.34375 -26.53125 C 12.3125 -24.6875 11.796875 -22.554688 11.796875 -20.140625 Z M 11.796875 -20.140625 "/></g></g></g><g fill="#ffffff" fill-opacity="1"><g transform="translate(127.059895, 74.659939)"><g><path d="M 4.828125 0 L 4.828125 -40.296875 L 22.859375 -40.296875 C 26.960938 -40.296875 30.222656 -39.316406 32.640625 -37.359375 C 35.054688 -35.398438 36.265625 -32.769531 36.265625 -29.46875 C 36.265625 -27.59375 35.84375 -25.882812 35 -24.34375 C 34.15625 -22.8125 32.960938 -21.601562 31.421875 -20.71875 C 33.347656 -19.875 34.835938 -18.625 35.890625 -16.96875 C 36.941406 -15.320312 37.46875 -13.425781 37.46875 -11.28125 C 37.46875 -9.019531 36.890625 -7.046875 35.734375 -5.359375 C 34.585938 -3.671875 32.988281 -2.351562 30.9375 -1.40625 C 28.882812 -0.46875 26.492188 0 23.765625 0 Z M 13.875 -7.25 L 22.390625 -7.25 C 24.191406 -7.25 25.59375 -7.671875 26.59375 -8.515625 C 27.59375 -9.359375 28.09375 -10.550781 28.09375 -12.09375 C 28.09375 -13.625 27.59375 -14.8125 26.59375 -15.65625 C 25.59375 -16.5 24.191406 -16.921875 22.390625 -16.921875 L 13.875 -16.921875 Z M 13.875 -23.890625 L 21.46875 -23.890625 C 23.238281 -23.890625 24.59375 -24.289062 25.53125 -25.09375 C 26.46875 -25.90625 26.9375 -27.039062 26.9375 -28.5 C 26.9375 -29.957031 26.46875 -31.078125 25.53125 -31.859375 C 24.59375 -32.648438 23.238281 -33.046875 21.46875 -33.046875 L 13.875 -33.046875 Z M 13.875 -23.890625 "/></g></g></g><g fill="#00bf63" fill-opacity="1"><g transform="translate(223.063479, 75.964131)"><g><path d="M 4.25 0 L 4.25 -40.125 L 21.15625 -40.125 C 24.550781 -40.125 27.5 -39.507812 30 -38.28125 C 32.507812 -37.0625 34.441406 -35.328125 35.796875 -33.078125 C 37.160156 -30.828125 37.84375 -28.148438 37.84375 -25.046875 C 37.84375 -21.992188 37.160156 -19.328125 35.796875 -17.046875 C 34.441406 -14.773438 32.507812 -13.019531 30 -11.78125 C 27.5 -10.539062 24.550781 -9.921875 21.15625 -9.921875 L 15.828125 -9.921875 L 15.828125 0 Z M 15.703125 -19.609375 L 20.0625 -19.609375 C 21.976562 -19.609375 23.46875 -20.082031 24.53125 -21.03125 C 25.601562 -21.988281 26.140625 -23.3125 26.140625 -25 C 26.140625 -26.675781 25.601562 -27.992188 24.53125 -28.953125 C 23.46875 -29.910156 21.976562 -30.390625 20.0625 -30.390625 L 15.703125 -30.390625 Z M 15.703125 -19.609375 "/></g></g></g><g fill="#00bf63" fill-opacity="1"><g transform="translate(262.214472, 75.964131)"><g><path d="M 23.796875 0.859375 C 20.578125 0.859375 17.640625 0.351562 14.984375 -0.65625 C 12.328125 -1.664062 10.023438 -3.109375 8.078125 -4.984375 C 6.128906 -6.859375 4.617188 -9.078125 3.546875 -11.640625 C 2.484375 -14.203125 1.953125 -17.007812 1.953125 -20.0625 C 1.953125 -23.125 2.484375 -25.929688 3.546875 -28.484375 C 4.617188 -31.046875 6.128906 -33.265625 8.078125 -35.140625 C 10.023438 -37.015625 12.328125 -38.457031 14.984375 -39.46875 C 17.640625 -40.476562 20.578125 -40.984375 23.796875 -40.984375 C 27.003906 -40.984375 29.9375 -40.476562 32.59375 -39.46875 C 35.25 -38.457031 37.550781 -37.015625 39.5 -35.140625 C 41.445312 -33.265625 42.957031 -31.046875 44.03125 -28.484375 C 45.101562 -25.929688 45.640625 -23.125 45.640625 -20.0625 C 45.640625 -17.007812 45.101562 -14.203125 44.03125 -11.640625 C 42.957031 -9.078125 41.445312 -6.859375 39.5 -4.984375 C 37.550781 -3.109375 35.25 -1.664062 32.59375 -0.65625 C 29.9375 0.351562 27.003906 0.859375 23.796875 0.859375 Z M 13.703125 -20.0625 C 13.703125 -18.070312 14.128906 -16.300781 14.984375 -14.75 C 15.847656 -13.207031 17.046875 -12.003906 18.578125 -11.140625 C 20.109375 -10.285156 21.847656 -9.859375 23.796875 -9.859375 C 25.773438 -9.859375 27.519531 -10.285156 29.03125 -11.140625 C 30.539062 -12.003906 31.722656 -13.207031 32.578125 -14.75 C 33.441406 -16.300781 33.875 -18.070312 33.875 -20.0625 C 33.875 -22.09375 33.441406 -23.867188 32.578125 -25.390625 C 31.722656 -26.921875 30.539062 -28.113281 29.03125 -28.96875 C 27.519531 -29.832031 25.773438 -30.265625 23.796875 -30.265625 C 21.847656 -30.265625 20.109375 -29.832031 18.578125 -28.96875 C 17.046875 -28.113281 15.847656 -26.921875 14.984375 -25.390625 C 14.128906 -23.867188 13.703125 -22.09375 13.703125 -20.0625 Z M 13.703125 -20.0625 "/></g></g></g><g fill="#00bf63" fill-opacity="1"><g transform="translate(309.849138, 75.964131)"><g><path d="M 18.625 0.859375 C 13.425781 0.859375 9.351562 -0.367188 6.40625 -2.828125 C 3.46875 -5.296875 2 -8.691406 2 -13.015625 L 13.1875 -13.015625 C 13.1875 -11.484375 13.65625 -10.285156 14.59375 -9.421875 C 15.53125 -8.566406 16.816406 -8.140625 18.453125 -8.140625 C 19.867188 -8.140625 20.976562 -8.414062 21.78125 -8.96875 C 22.582031 -9.519531 22.984375 -10.296875 22.984375 -11.296875 C 22.984375 -13.515625 20.578125 -15.097656 15.765625 -16.046875 C 6.785156 -17.765625 2.296875 -21.988281 2.296875 -28.71875 C 2.296875 -32.5 3.660156 -35.488281 6.390625 -37.6875 C 9.117188 -39.882812 12.851562 -40.984375 17.59375 -40.984375 C 20.882812 -40.984375 23.742188 -40.429688 26.171875 -39.328125 C 28.597656 -38.222656 30.46875 -36.644531 31.78125 -34.59375 C 33.101562 -32.550781 33.765625 -30.15625 33.765625 -27.40625 L 22.875 -27.40625 C 22.875 -28.9375 22.429688 -30.101562 21.546875 -30.90625 C 20.671875 -31.707031 19.429688 -32.109375 17.828125 -32.109375 C 16.492188 -32.109375 15.425781 -31.828125 14.625 -31.265625 C 13.820312 -30.710938 13.421875 -29.941406 13.421875 -28.953125 C 13.421875 -27.921875 13.953125 -27.0625 15.015625 -26.375 C 16.085938 -25.6875 17.90625 -25.054688 20.46875 -24.484375 C 25.351562 -23.410156 28.914062 -21.847656 31.15625 -19.796875 C 33.394531 -17.753906 34.515625 -15.070312 34.515625 -11.75 C 34.515625 -7.8125 33.117188 -4.722656 30.328125 -2.484375 C 27.535156 -0.253906 23.632812 0.859375 18.625 0.859375 Z M 18.625 0.859375 "/></g></g></g><g fill="#00bf63" fill-opacity="1"><g transform="translate(346.477961, 75.964131)"><g><path d="M 13.8125 0 L 13.8125 -29.40625 L 1.609375 -29.40625 L 1.609375 -40.125 L 37.546875 -40.125 L 37.546875 -29.40625 L 25.34375 -29.40625 L 25.34375 0 Z M 13.8125 0 "/></g></g></g></svg>