<svg xmlns="http://www.w3.org/2000/svg" xmlns:xlink="http://www.w3.org/1999/xlink" width="324" zoomAndPan="magnify" viewBox="0 0 242.87999 242.999999" height="324" preserveAspectRatio="xMidYMid meet" version="1.0"><defs><clipPath id="c31700de84"><path d="M 0 0.0585938 L 242.761719 0.0585938 L 242.761719 242.9375 L 0 242.9375 Z M 0 0.0585938 " clip-rule="nonzero"/></clipPath><clipPath id="0dbddb374c"><path d="M 121.441406 0.0585938 C 54.371094 0.0585938 0 54.429688 0 121.5 C 0 188.570312 54.371094 242.941406 121.441406 242.941406 C 188.507812 242.941406 242.878906 188.570312 242.878906 121.5 C 242.878906 54.429688 188.507812 0.0585938 121.441406 0.0585938 Z M 121.441406 0.0585938 " clip-rule="nonzero"/></clipPath><clipPath id="a1d04b3636"><path d="M 63 44.710938 L 179 44.710938 L 179 161 L 63 161 Z M 63 44.710938 " clip-rule="nonzero"/></clipPath><clipPath id="08757cf6cb"><path d="M 35.765625 117 L 82 117 L 82 154 L 35.765625 154 Z M 35.765625 117 " clip-rule="nonzero"/></clipPath></defs><g clip-path="url(#c31700de84)"><g clip-path="url(#0dbddb374c)"><path fill="#002f6c" d="M 0 0.0585938 L 242.878906 0.0585938 L 242.878906 242.941406 L 0 242.941406 Z M 0 0.0585938 " fill-opacity="1" fill-rule="nonzero"/></g></g><g clip-path="url(#a1d04b3636)"><path fill="#ffffff" d="M 159.554688 145.511719 C 160.519531 144.671875 161.351562 143.890625 162.121094 143.109375 C 163.511719 141.699219 164.796875 140.261719 165.9375 138.851562 C 170.269531 133.535156 173.511719 127.683594 175.675781 121.566406 C 176.332031 119.710938 176.890625 117.828125 177.34375 115.9375 C 177.382812 115.761719 177.429688 115.597656 177.46875 115.433594 C 177.875 113.679688 178.203125 111.902344 178.433594 110.125 C 179.671875 101.054688 178.714844 91.789062 175.617188 83.121094 C 174.902344 81.121094 174.074219 79.152344 173.136719 77.230469 C 170.355469 71.527344 166.574219 66.179688 161.8125 61.460938 L 161.804688 61.460938 C 150.9375 50.648438 136.503906 44.710938 121.175781 44.710938 L 120.945312 44.710938 C 105.53125 44.769531 91.054688 50.824219 80.195312 61.777344 C 75.628906 66.371094 72 71.554688 69.304688 77.078125 C 68.359375 78.996094 67.53125 80.957031 66.824219 82.957031 C 63.71875 91.632812 62.761719 100.910156 63.929688 109.953125 C 64.160156 111.738281 64.480469 113.523438 64.886719 115.28125 C 64.914062 115.445312 64.953125 115.609375 65 115.773438 C 65.433594 117.675781 65.984375 119.558594 66.632812 121.410156 C 69.414062 129.460938 74.027344 137.007812 80.464844 143.398438 C 82.585938 145.484375 84.855469 147.414062 87.210938 149.121094 C 87.316406 149.199219 87.421875 149.277344 87.53125 149.355469 C 87.878906 149.605469 88.214844 149.847656 88.5625 150.066406 C 90.125 151.140625 91.71875 152.125 93.351562 153.023438 C 110.65625 162.578125 131.496094 162.617188 148.8125 153.097656 C 150.144531 152.375 151.457031 151.582031 152.75 150.734375 C 152.761719 150.734375 152.761719 150.722656 152.769531 150.722656 L 153.097656 150.523438 C 153.28125 150.40625 153.472656 150.289062 153.648438 150.164062 C 154.035156 149.894531 154.351562 149.671875 154.660156 149.460938 C 154.789062 149.363281 154.914062 149.265625 155.039062 149.179688 C 156.023438 148.457031 156.988281 147.722656 157.925781 146.949219 C 158.386719 146.5625 158.839844 146.1875 159.265625 145.761719 C 159.363281 145.675781 159.457031 145.597656 159.554688 145.511719 Z M 158.367188 140.28125 C 158.300781 140.347656 158.203125 140.425781 158.109375 140.511719 C 157.5 141.109375 156.882812 141.691406 156.253906 142.230469 C 155.898438 142.558594 155.53125 142.867188 155.164062 143.167969 C 153.523438 144.539062 151.792969 145.8125 150.019531 146.960938 L 150.007812 146.960938 C 149.546875 147.257812 149.082031 147.546875 148.621094 147.839844 L 148.609375 147.839844 C 147.289062 148.667969 145.847656 149.460938 144.371094 150.164062 L 144.324219 150.195312 C 144.324219 150.195312 144.265625 150.222656 144.238281 150.242188 C 143.542969 150.578125 142.828125 150.917969 142.085938 151.199219 C 141.582031 151.417969 141.082031 151.632812 140.570312 151.835938 C 140.058594 152.035156 139.546875 152.238281 139.023438 152.421875 C 135.898438 153.5625 132.585938 154.402344 129.167969 154.902344 C 128.839844 154.953125 128.503906 155 128.175781 155.039062 C 127.847656 155.085938 127.507812 155.125 127.179688 155.164062 C 125.78125 155.339844 124.449219 155.433594 123.167969 155.472656 C 122.925781 155.484375 122.671875 155.492188 122.433594 155.492188 L 122.414062 155.492188 C 122.289062 155.503906 122.144531 155.503906 122 155.503906 L 121.535156 155.503906 C 121.429688 155.503906 121.324219 155.503906 121.207031 155.503906 C 120.8125 155.503906 120.40625 155.503906 120 155.484375 C 119.769531 155.484375 119.535156 155.472656 119.304688 155.464844 C 118.621094 155.445312 117.953125 155.394531 117.289062 155.347656 C 116.1875 155.261719 115.183594 155.164062 114.207031 155.039062 C 113.859375 154.992188 113.503906 154.941406 113.15625 154.894531 L 110.597656 154.429688 C 110.175781 154.355469 109.738281 154.265625 109.304688 154.171875 C 108.484375 153.988281 107.65625 153.773438 106.816406 153.523438 C 106.378906 153.40625 105.945312 153.273438 105.511719 153.128906 C 105.328125 153.078125 105.078125 153.003906 104.808594 152.894531 C 104.171875 152.722656 103.550781 152.5 102.914062 152.257812 C 102.875 152.238281 102.828125 152.230469 102.789062 152.210938 C 102.730469 152.191406 102.664062 152.164062 102.605469 152.144531 C 101.949219 151.921875 101.199219 151.621094 100.433594 151.285156 L 100.289062 151.226562 C 100.222656 151.199219 100.15625 151.167969 100.097656 151.140625 C 99.605469 150.9375 99.101562 150.722656 98.609375 150.472656 L 98.601562 150.472656 L 98.214844 150.289062 L 98.078125 150.230469 C 98.078125 150.230469 97.992188 150.195312 97.953125 150.175781 C 97.878906 150.136719 97.800781 150.097656 97.730469 150.058594 C 97.539062 149.972656 97.355469 149.875 97.183594 149.789062 C 97.09375 149.738281 97.019531 149.703125 96.929688 149.664062 C 96.746094 149.554688 96.554688 149.460938 96.371094 149.355469 C 96.363281 149.355469 96.351562 149.355469 96.351562 149.34375 C 96.167969 149.246094 95.996094 149.152344 95.820312 149.054688 C 95.492188 148.878906 95.136719 148.6875 94.777344 148.484375 C 94.59375 148.378906 94.410156 148.273438 94.226562 148.15625 C 94.046875 148.050781 93.863281 147.945312 93.6875 147.828125 C 93.621094 147.789062 93.542969 147.742188 93.464844 147.695312 C 93.058594 147.460938 92.617188 147.183594 92.171875 146.890625 C 92 146.765625 91.835938 146.652344 91.660156 146.527344 C 91.640625 146.515625 91.621094 146.496094 91.601562 146.488281 C 90.898438 146.035156 90.195312 145.542969 89.46875 145.011719 C 88.746094 144.46875 88.003906 143.890625 87.257812 143.273438 L 87.25 143.273438 C 86.167969 142.375 85.164062 141.457031 84.179688 140.484375 C 84.140625 140.453125 84.101562 140.414062 84.066406 140.386719 C 84.046875 140.367188 84.027344 140.359375 84.015625 140.347656 L 83.902344 140.222656 L 83.824219 140.15625 L 83.6875 140.019531 C 83.417969 139.75 83.148438 139.480469 82.898438 139.210938 C 77.734375 133.863281 73.929688 127.683594 71.476562 121.109375 C 70.8125 119.335938 70.242188 117.539062 69.789062 115.726562 C 69.75 115.617188 69.730469 115.511719 69.703125 115.40625 C 69.238281 113.542969 68.871094 111.660156 68.609375 109.769531 C 68.03125 105.609375 67.953125 101.390625 68.371094 97.210938 C 68.542969 95.457031 68.804688 93.71875 69.152344 91.980469 C 69.375 90.839844 69.632812 89.703125 69.941406 88.574219 C 70.144531 87.773438 70.386719 86.960938 70.636719 86.167969 C 70.9375 85.234375 71.265625 84.296875 71.621094 83.378906 C 71.730469 83.089844 71.84375 82.800781 71.960938 82.511719 C 72.277344 81.730469 72.617188 80.949219 72.964844 80.175781 C 73.3125 79.421875 73.679688 78.679688 74.066406 77.9375 C 74.363281 77.347656 74.683594 76.769531 75.011719 76.1875 C 75.136719 75.976562 75.25 75.765625 75.378906 75.550781 C 77.570312 71.808594 80.269531 68.265625 83.464844 65.039062 C 83.679688 64.828125 83.882812 64.625 84.082031 64.433594 C 84.191406 64.328125 84.304688 64.21875 84.421875 64.113281 C 84.429688 64.113281 84.441406 64.105469 84.449219 64.09375 C 84.847656 63.6875 85.367188 63.207031 85.878906 62.753906 C 86.660156 62.058594 87.453125 61.390625 88.261719 60.753906 C 89.074219 60.109375 89.902344 59.5 90.742188 58.910156 C 91.417969 58.4375 92.105469 57.976562 92.808594 57.539062 C 93.84375 56.882812 94.902344 56.265625 95.976562 55.695312 C 96.613281 55.332031 97.328125 54.984375 98.03125 54.644531 C 98.8125 54.257812 99.566406 53.902344 100.328125 53.601562 L 100.339844 53.601562 C 100.339844 53.601562 100.425781 53.5625 100.472656 53.542969 C 100.65625 53.457031 100.839844 53.371094 101.035156 53.304688 C 101.199219 53.234375 101.371094 53.167969 101.542969 53.101562 C 101.601562 53.082031 101.671875 53.050781 101.726562 53.03125 C 102.375 52.773438 102.945312 52.570312 103.496094 52.367188 L 103.910156 52.222656 C 104.644531 51.972656 105.339844 51.75 105.996094 51.566406 C 106.707031 51.34375 107.511719 51.121094 108.300781 50.949219 C 108.679688 50.832031 109.257812 50.6875 109.863281 50.582031 C 109.992188 50.550781 110.117188 50.515625 110.25 50.484375 C 110.386719 50.457031 110.53125 50.425781 110.675781 50.386719 C 110.6875 50.398438 110.6875 50.386719 110.695312 50.386719 C 110.839844 50.359375 110.996094 50.332031 111.160156 50.300781 L 111.179688 50.300781 C 111.34375 50.273438 111.507812 50.242188 111.679688 50.214844 C 112.375 50.078125 113.003906 49.964844 113.628906 49.894531 C 114.171875 49.820312 114.894531 49.710938 115.578125 49.683594 C 123.582031 48.796875 131.574219 49.761719 138.996094 52.40625 C 140.597656 52.984375 142.171875 53.632812 143.714844 54.363281 C 149.132812 56.902344 154.148438 60.386719 158.523438 64.730469 L 158.53125 64.730469 C 158.851562 65.039062 159.160156 65.359375 159.457031 65.675781 C 159.777344 66.015625 160.105469 66.363281 160.425781 66.710938 C 160.878906 67.210938 161.332031 67.734375 161.765625 68.246094 C 162.199219 68.765625 162.625 69.289062 163.039062 69.820312 C 163.589844 70.523438 164.121094 71.246094 164.632812 71.972656 C 166.023438 73.921875 167.257812 75.957031 168.347656 78.070312 C 169.257812 79.835938 170.066406 81.652344 170.769531 83.515625 C 173.019531 89.414062 174.199219 95.726562 174.226562 102.222656 C 174.238281 104.828125 174.0625 107.40625 173.695312 109.933594 C 173.433594 111.835938 173.058594 113.71875 172.585938 115.5625 C 172.566406 115.667969 172.539062 115.773438 172.507812 115.878906 C 172.035156 117.703125 171.464844 119.5 170.800781 121.253906 L 170.789062 121.253906 C 169.902344 123.621094 168.839844 125.898438 167.613281 128.097656 C 167.210938 128.84375 166.773438 129.566406 166.332031 130.289062 C 166.082031 130.707031 165.820312 131.121094 165.550781 131.527344 C 165.308594 131.894531 165.058594 132.257812 164.804688 132.617188 C 164.554688 132.984375 164.304688 133.339844 164.042969 133.699219 C 164.003906 133.753906 163.957031 133.804688 163.929688 133.863281 C 163.523438 134.402344 163.117188 134.933594 162.703125 135.453125 C 162.578125 135.609375 162.449219 135.761719 162.324219 135.917969 C 161.234375 137.257812 160.058594 138.570312 158.8125 139.828125 L 158.367188 140.269531 Z M 158.367188 140.28125 " fill-opacity="1" fill-rule="nonzero"/></g><path fill="#ffffff" d="M 205.839844 189.914062 L 179.96875 164.238281 C 179.382812 163.660156 178.609375 163.339844 177.777344 163.339844 C 177.671875 163.332031 177.566406 163.332031 177.46875 163.339844 C 176.679688 163.367188 176.089844 163.726562 175.570312 164.246094 L 172.847656 166.988281 C 172.324219 167.507812 172.015625 168.183594 171.957031 168.917969 C 171.9375 169.007812 171.9375 169.101562 171.9375 169.199219 C 171.949219 170.027344 172.265625 170.800781 172.867188 171.390625 L 198.734375 197.066406 C 199.949219 198.273438 201.929688 198.261719 203.136719 197.046875 L 205.859375 194.304688 C 207.0625 193.089844 207.054688 191.109375 205.839844 189.902344 Z M 205.839844 189.914062 " fill-opacity="1" fill-rule="nonzero"/><path fill="#ffffff" d="M 168.839844 159.449219 L 161.292969 151.949219 L 161.214844 151.871094 C 161.214844 151.871094 161.1875 151.902344 161.175781 151.910156 C 160.917969 152.125 160.65625 152.328125 160.40625 152.519531 C 159.933594 152.894531 159.457031 153.253906 158.996094 153.601562 L 164.148438 158.726562 L 168.484375 163.03125 L 169.015625 163.5625 L 170.984375 161.5625 L 170.453125 161.042969 L 168.851562 159.449219 Z M 168.839844 159.449219 " fill-opacity="1" fill-rule="nonzero"/><path fill="#ffffff" d="M 175.808594 153.851562 C 176.5625 153.84375 177.335938 153.792969 178.125 153.726562 C 179.34375 153.640625 180.53125 153.515625 181.71875 153.332031 C 185.761719 152.730469 189.613281 151.621094 193.183594 150.039062 C 193.773438 149.789062 194.285156 149.546875 194.804688 149.304688 L 195.238281 149.113281 C 196.445312 148.503906 197.730469 147.800781 198.996094 147.046875 C 201.011719 145.832031 202.972656 144.429688 204.824219 142.886719 C 205.394531 142.421875 205.945312 141.929688 206.484375 141.429688 C 205.144531 135.347656 202.132812 129.835938 197.691406 125.398438 C 194.515625 122.222656 190.683594 119.710938 186.535156 118.070312 C 185.222656 118.929688 183.8125 119.632812 182.324219 120.183594 C 180.007812 128.128906 176.082031 135.753906 170.519531 142.566406 C 169.273438 144.113281 167.867188 145.695312 166.320312 147.257812 C 166.101562 147.492188 165.867188 147.710938 165.636719 147.933594 L 171.496094 153.765625 C 172.210938 153.8125 172.835938 153.84375 173.464844 153.851562 Z M 175.808594 153.851562 " fill-opacity="1" fill-rule="nonzero"/><path fill="#ffffff" d="M 163.484375 123.261719 C 164.09375 122.019531 164.640625 120.753906 165.132812 119.480469 C 164.246094 119.074219 163.40625 118.601562 162.597656 118.070312 C 159.292969 119.363281 156.273438 121.167969 153.621094 123.378906 C 155.386719 126.109375 156.785156 129.054688 157.796875 132.144531 C 157.808594 132.125 157.816406 132.113281 157.828125 132.105469 C 158.089844 131.796875 158.328125 131.476562 158.5625 131.167969 C 158.8125 130.859375 159.042969 130.542969 159.277344 130.222656 C 159.507812 129.902344 159.730469 129.585938 159.949219 129.265625 C 160.289062 128.785156 160.609375 128.300781 160.925781 127.808594 C 161.554688 126.824219 162.132812 125.820312 162.691406 124.808594 C 162.960938 124.296875 163.222656 123.785156 163.484375 123.261719 Z M 163.484375 123.261719 " fill-opacity="1" fill-rule="nonzero"/><path fill="#ffffff" d="M 184.265625 111.148438 C 184.199219 111.652344 184.128906 112.152344 184.042969 112.644531 C 184.546875 112.289062 185.027344 111.902344 185.480469 111.488281 C 188.792969 108.503906 190.878906 104.191406 190.878906 99.394531 C 190.878906 93.265625 187.480469 87.90625 182.460938 85.117188 C 184.0625 90.765625 184.875 96.59375 184.875 102.433594 C 184.875 105.347656 184.671875 108.253906 184.265625 111.148438 Z M 184.265625 111.148438 " fill-opacity="1" fill-rule="nonzero"/><path fill="#ffffff" d="M 166.921875 113.792969 C 167.191406 112.722656 167.414062 111.640625 167.597656 110.550781 C 169.023438 102.347656 168.269531 93.832031 165.347656 85.949219 C 161.070312 88.890625 158.261719 93.8125 158.261719 99.394531 C 158.261719 104.179688 160.335938 108.496094 163.636719 111.488281 C 164.632812 112.375 165.734375 113.15625 166.921875 113.792969 Z M 166.921875 113.792969 " fill-opacity="1" fill-rule="nonzero"/><path fill="#ffffff" d="M 121.148438 111.429688 C 125.347656 111.429688 129.179688 109.828125 132.066406 107.222656 C 135.367188 104.238281 137.453125 99.925781 137.453125 95.125 C 137.453125 86.132812 130.136719 78.816406 121.148438 78.816406 C 112.164062 78.816406 104.835938 86.132812 104.835938 95.125 C 104.835938 99.914062 106.910156 104.230469 110.222656 107.222656 C 113.117188 109.828125 116.949219 111.429688 121.148438 111.429688 Z M 121.148438 111.429688 " fill-opacity="1" fill-rule="nonzero"/><path fill="#ffffff" d="M 145.78125 122.75 C 145.300781 122.191406 144.789062 121.652344 144.265625 121.128906 C 141.089844 117.953125 137.257812 115.445312 133.109375 113.8125 C 129.652344 116.054688 125.550781 117.335938 121.148438 117.335938 C 116.746094 117.335938 112.636719 116.042969 109.179688 113.8125 C 104.238281 115.746094 99.933594 118.804688 96.554688 122.664062 C 95.214844 124.179688 94.027344 125.820312 92.992188 127.570312 C 91.253906 130.503906 89.972656 133.71875 89.210938 137.132812 C 89.585938 137.5 89.972656 137.839844 90.359375 138.175781 C 90.570312 138.359375 90.792969 138.542969 91.015625 138.726562 C 91.34375 138.996094 91.671875 139.257812 92 139.527344 C 92.984375 140.289062 93.949219 140.984375 94.933594 141.632812 L 94.941406 141.632812 C 95.53125 142.039062 96.070312 142.382812 96.613281 142.714844 C 96.652344 142.730469 96.679688 142.75 96.71875 142.769531 C 96.96875 142.925781 97.203125 143.070312 97.421875 143.195312 C 97.433594 143.195312 97.441406 143.214844 97.453125 143.214844 C 97.703125 143.371094 97.945312 143.503906 98.1875 143.628906 C 98.339844 143.714844 98.484375 143.792969 98.640625 143.871094 C 99.355469 144.277344 99.960938 144.59375 100.589844 144.894531 L 101.082031 145.125 C 101.554688 145.347656 102.019531 145.558594 102.5 145.761719 C 102.511719 145.761719 102.519531 145.773438 102.53125 145.773438 L 102.953125 145.945312 C 103.03125 145.976562 103.117188 146.015625 103.195312 146.042969 C 103.699219 146.253906 104.199219 146.457031 104.71875 146.640625 C 104.738281 146.652344 104.757812 146.652344 104.777344 146.660156 C 105.359375 146.882812 105.957031 147.074219 106.542969 147.269531 C 106.582031 147.277344 106.613281 147.289062 106.652344 147.296875 C 106.699219 147.316406 106.757812 147.335938 106.816406 147.355469 C 106.871094 147.375 106.929688 147.394531 106.980469 147.414062 C 107.007812 147.414062 107.296875 147.511719 107.335938 147.519531 C 107.972656 147.730469 108.601562 147.914062 109.21875 148.078125 C 110.046875 148.300781 110.859375 148.496094 111.640625 148.640625 L 111.707031 148.640625 C 111.707031 148.640625 114.113281 149.074219 114.113281 149.074219 C 114.335938 149.113281 114.554688 149.140625 114.777344 149.171875 C 114.863281 149.179688 114.953125 149.199219 115.039062 149.207031 C 115.464844 149.265625 115.886719 149.316406 116.324219 149.355469 C 116.96875 149.421875 117.597656 149.480469 118.203125 149.507812 C 118.417969 149.519531 118.621094 149.539062 118.832031 149.546875 C 119.035156 149.554688 119.246094 149.574219 119.449219 149.574219 C 119.644531 149.585938 119.835938 149.59375 120.027344 149.59375 L 120.039062 149.59375 C 120.734375 149.625 121.398438 149.625 122.046875 149.59375 L 122.382812 149.59375 C 122.558594 149.59375 122.730469 149.59375 122.90625 149.574219 L 122.992188 149.574219 C 123.136719 149.574219 123.28125 149.566406 123.4375 149.546875 C 123.851562 149.527344 124.265625 149.5 124.691406 149.46875 C 125.597656 149.402344 126.496094 149.304688 127.394531 149.191406 C 127.683594 149.152344 127.984375 149.113281 128.28125 149.0625 C 132.046875 148.503906 135.636719 147.511719 138.996094 146.089844 C 139.246094 145.996094 139.496094 145.878906 139.75 145.773438 C 140.316406 145.53125 140.808594 145.300781 141.3125 145.066406 L 141.726562 144.882812 L 141.804688 144.847656 C 142.761719 144.363281 143.765625 143.832031 144.757812 143.253906 C 145.027344 143.097656 145.289062 142.945312 145.558594 142.78125 C 145.964844 142.539062 146.359375 142.289062 146.765625 142.027344 C 148.359375 141.003906 149.902344 139.855469 151.390625 138.621094 C 151.648438 138.40625 151.910156 138.1875 152.171875 137.964844 C 152.289062 137.859375 152.402344 137.761719 152.519531 137.65625 C 152.605469 137.585938 152.683594 137.511719 152.761719 137.441406 C 152.867188 137.347656 152.960938 137.257812 153.058594 137.164062 C 152.316406 133.792969 151.0625 130.609375 149.324219 127.675781 C 148.300781 125.9375 147.113281 124.285156 145.773438 122.75 Z M 145.78125 122.75 " fill-opacity="1" fill-rule="nonzero"/><path fill="#ffffff" d="M 77.132812 119.355469 C 78.070312 121.816406 79.21875 124.199219 80.578125 126.507812 C 81.179688 127.511719 81.816406 128.503906 82.492188 129.46875 C 82.722656 129.796875 82.953125 130.117188 83.1875 130.433594 C 83.601562 130.996094 84.027344 131.554688 84.480469 132.09375 C 85.511719 128.957031 86.941406 125.996094 88.707031 123.261719 C 86.015625 121.015625 82.964844 119.191406 79.722656 117.917969 C 78.902344 118.457031 78.03125 118.9375 77.132812 119.355469 Z M 77.132812 119.355469 " fill-opacity="1" fill-rule="nonzero"/><path fill="#ffffff" d="M 84.054688 99.230469 C 84.054688 93.679688 81.265625 88.765625 77.019531 85.820312 L 77.007812 85.820312 C 76.875 86.179688 76.746094 86.527344 76.632812 86.882812 C 76.527344 87.203125 76.417969 87.511719 76.3125 87.828125 C 76.109375 88.457031 75.925781 89.09375 75.746094 89.730469 C 75.570312 90.367188 75.40625 91.015625 75.25 91.652344 C 74.875 93.265625 74.585938 94.894531 74.382812 96.535156 C 74.304688 97.183594 74.238281 97.820312 74.179688 98.464844 L 74.179688 98.496094 C 74.121094 99.140625 74.082031 99.789062 74.054688 100.4375 C 73.96875 102.558594 74.015625 104.691406 74.21875 106.804688 C 74.230469 106.949219 74.238281 107.085938 74.257812 107.222656 C 74.363281 108.273438 74.507812 109.335938 74.683594 110.386719 C 74.808594 111.121094 74.953125 111.863281 75.105469 112.597656 C 75.105469 112.605469 75.105469 112.617188 75.117188 112.617188 C 75.144531 112.789062 75.183594 112.964844 75.234375 113.128906 C 75.269531 113.300781 75.308594 113.476562 75.359375 113.648438 C 76.554688 113.011719 77.675781 112.230469 78.667969 111.324219 C 81.980469 108.339844 84.054688 104.027344 84.054688 99.230469 Z M 84.054688 99.230469 " fill-opacity="1" fill-rule="nonzero"/><path fill="#ffffff" d="M 58.351562 112.539062 C 58.265625 112.019531 58.1875 111.496094 58.117188 110.976562 C 56.949219 102.277344 57.589844 93.371094 60.011719 84.875 C 54.925781 87.644531 51.449219 93.042969 51.449219 99.230469 C 51.449219 104.027344 53.523438 108.332031 56.824219 111.324219 C 57.308594 111.757812 57.820312 112.164062 58.351562 112.539062 Z M 58.351562 112.539062 " fill-opacity="1" fill-rule="nonzero"/><g clip-path="url(#08757cf6cb)"><path fill="#ffffff" d="M 60.019531 120.050781 C 58.523438 119.488281 57.105469 118.773438 55.78125 117.917969 C 45.628906 121.894531 38.148438 130.648438 35.820312 141.246094 C 36.402344 141.796875 37 142.328125 37.617188 142.839844 C 38.949219 143.929688 40.234375 144.875 41.546875 145.734375 C 42.183594 146.1875 42.742188 146.542969 43.332031 146.882812 C 44.035156 147.328125 44.644531 147.664062 45.253906 147.984375 C 45.957031 148.378906 46.574219 148.707031 47.191406 148.996094 L 47.636719 149.199219 C 48.148438 149.441406 48.640625 149.671875 49.152344 149.882812 L 49.597656 150.066406 C 50.195312 150.308594 50.773438 150.550781 51.402344 150.773438 C 52.019531 150.996094 52.644531 151.214844 53.273438 151.410156 C 53.378906 151.4375 53.476562 151.476562 53.582031 151.515625 C 53.621094 151.515625 53.910156 151.621094 53.949219 151.632812 C 55.417969 152.113281 56.863281 152.480469 58.265625 152.742188 L 60.726562 153.1875 C 61.824219 153.351562 63.003906 153.476562 64.179688 153.5625 C 65.105469 153.628906 65.871094 153.6875 66.652344 153.699219 L 68.996094 153.699219 C 69.75 153.699219 70.53125 153.628906 71.304688 153.570312 C 72.53125 153.476562 73.707031 153.351562 74.90625 153.167969 C 77.007812 152.859375 79.066406 152.402344 81.042969 151.824219 C 79.410156 150.503906 77.828125 149.082031 76.3125 147.585938 C 68.339844 139.671875 62.90625 130.15625 60.019531 120.050781 Z M 60.019531 120.050781 " fill-opacity="1" fill-rule="nonzero"/></g></svg>