<svg xmlns="http://www.w3.org/2000/svg" xmlns:xlink="http://www.w3.org/1999/xlink" width="83" zoomAndPan="magnify" viewBox="0 0 62.25 62.249997" height="83" preserveAspectRatio="xMidYMid meet" version="1.0"><defs><clipPath id="f2e442b4ae"><path d="M 0 0 L 61.507812 0 L 61.507812 61.507812 L 0 61.507812 Z M 0 0 " clip-rule="nonzero"/></clipPath></defs><g clip-path="url(#f2e442b4ae)"><path fill="#00bf63" d="M 30.566406 -0.0195312 C 13.675781 -0.0195312 -0.0195312 13.675781 -0.0195312 30.566406 C -0.0195312 47.457031 13.675781 61.148438 30.566406 61.148438 C 47.457031 61.148438 61.148438 47.457031 61.148438 30.566406 C 61.148438 13.675781 47.457031 -0.0195312 30.566406 -0.0195312 Z M 22.605469 16.59375 L 29.074219 10.128906 C 29.496094 9.707031 30.050781 9.496094 30.601562 9.496094 C 30.609375 9.496094 30.613281 9.496094 30.621094 9.496094 C 30.625 9.496094 30.628906 9.496094 30.636719 9.496094 C 31.1875 9.496094 31.742188 9.707031 32.167969 10.128906 L 38.632812 16.59375 C 39.476562 17.441406 39.476562 18.8125 38.632812 19.65625 C 38.207031 20.082031 37.652344 20.292969 37.101562 20.292969 C 36.546875 20.292969 35.992188 20.082031 35.570312 19.65625 L 32.710938 16.800781 L 32.710938 28.402344 C 32.710938 29.597656 31.742188 30.566406 30.546875 30.566406 C 29.351562 30.566406 28.378906 29.597656 28.378906 28.402344 L 28.378906 16.945312 L 25.667969 19.65625 C 25.246094 20.082031 24.691406 20.292969 24.136719 20.292969 C 23.582031 20.292969 23.03125 20.082031 22.605469 19.65625 C 21.761719 18.8125 21.761719 17.441406 22.605469 16.59375 Z M 47.199219 42.660156 C 47.199219 45.582031 44.332031 47.875 40.671875 47.875 L 20.460938 47.875 C 16.800781 47.875 13.933594 45.582031 13.933594 42.660156 L 13.933594 28.589844 C 13.933594 25.667969 16.800781 23.378906 20.460938 23.378906 L 23.1875 23.378906 C 23.5 23.433594 23.816406 23.464844 24.140625 23.464844 C 24.460938 23.464844 24.773438 23.433594 25.082031 23.378906 L 25.207031 23.378906 L 25.207031 27.609375 L 20.460938 27.609375 C 18.980469 27.609375 18.164062 28.347656 18.164062 28.589844 L 18.164062 42.660156 C 18.164062 42.90625 18.980469 43.644531 20.460938 43.644531 L 40.671875 43.644531 C 42.15625 43.644531 42.96875 42.90625 42.96875 42.660156 L 42.96875 28.589844 C 42.96875 28.347656 42.15625 27.609375 40.671875 27.609375 L 35.886719 27.609375 L 35.886719 23.378906 L 36.179688 23.378906 C 36.480469 23.429688 36.785156 23.464844 37.101562 23.464844 C 37.421875 23.464844 37.738281 23.433594 38.050781 23.378906 L 40.671875 23.378906 C 44.332031 23.378906 47.199219 25.667969 47.199219 28.589844 Z M 47.199219 42.660156 " fill-opacity="1" fill-rule="nonzero"/><path fill="#00bf63" d="M 30.566406 -0.0195312 C 13.675781 -0.0195312 -0.0195312 13.675781 -0.0195312 30.566406 C -0.0195312 47.457031 13.675781 61.148438 30.566406 61.148438 C 47.457031 61.148438 61.148438 47.457031 61.148438 30.566406 C 61.148438 13.675781 47.457031 -0.0195312 30.566406 -0.0195312 Z M 22.605469 16.59375 L 29.074219 10.128906 C 29.496094 9.707031 30.050781 9.496094 30.601562 9.496094 C 30.609375 9.496094 30.613281 9.496094 30.621094 9.496094 C 30.625 9.496094 30.628906 9.496094 30.636719 9.496094 C 31.1875 9.496094 31.742188 9.707031 32.167969 10.128906 L 38.632812 16.59375 C 39.476562 17.441406 39.476562 18.8125 38.632812 19.65625 C 38.207031 20.082031 37.652344 20.292969 37.101562 20.292969 C 36.546875 20.292969 35.992188 20.082031 35.570312 19.65625 L 32.710938 16.800781 L 32.710938 28.402344 C 32.710938 29.597656 31.742188 30.566406 30.546875 30.566406 C 29.351562 30.566406 28.378906 29.597656 28.378906 28.402344 L 28.378906 16.945312 L 25.667969 19.65625 C 25.246094 20.082031 24.691406 20.292969 24.136719 20.292969 C 23.582031 20.292969 23.03125 20.082031 22.605469 19.65625 C 21.761719 18.8125 21.761719 17.441406 22.605469 16.59375 Z M 47.199219 42.660156 C 47.199219 45.582031 44.332031 47.875 40.671875 47.875 L 20.460938 47.875 C 16.800781 47.875 13.933594 45.582031 13.933594 42.660156 L 13.933594 28.589844 C 13.933594 25.667969 16.800781 23.378906 20.460938 23.378906 L 23.1875 23.378906 C 23.5 23.433594 23.816406 23.464844 24.140625 23.464844 C 24.460938 23.464844 24.773438 23.433594 25.082031 23.378906 L 25.207031 23.378906 L 25.207031 27.609375 L 20.460938 27.609375 C 18.980469 27.609375 18.164062 28.347656 18.164062 28.589844 L 18.164062 42.660156 C 18.164062 42.90625 18.980469 43.644531 20.460938 43.644531 L 40.671875 43.644531 C 42.15625 43.644531 42.96875 42.90625 42.96875 42.660156 L 42.96875 28.589844 C 42.96875 28.347656 42.15625 27.609375 40.671875 27.609375 L 35.886719 27.609375 L 35.886719 23.378906 L 36.179688 23.378906 C 36.480469 23.429688 36.785156 23.464844 37.101562 23.464844 C 37.421875 23.464844 37.738281 23.433594 38.050781 23.378906 L 40.671875 23.378906 C 44.332031 23.378906 47.199219 25.667969 47.199219 28.589844 Z M 47.199219 42.660156 " fill-opacity="1" fill-rule="nonzero"/></g></svg>